<svg width="606" height="264" viewBox="0 0 606 264" fill="none" xmlns="http://www.w3.org/2000/svg">
<path d="M95.8984 163C93.2161 163 91.1719 162.661 89.7656 161.984C88.3854 161.307 87.4479 160.201 86.9531 158.664C86.4844 157.128 86.25 155.083 86.25 152.531V117.453C86.25 114.849 86.4844 112.792 86.9531 111.281C87.4479 109.745 88.3854 108.651 89.7656 108C91.1719 107.323 93.2161 106.984 95.8984 106.984H114.258C114.883 106.984 115.352 107.089 115.664 107.297C116.341 107.766 117.044 108.326 117.773 108.977C118.503 109.628 119.271 110.409 120.078 111.32C120.339 111.659 120.469 111.932 120.469 112.141C120.469 112.375 120.339 112.635 120.078 112.922C119.271 113.833 118.503 114.615 117.773 115.266C117.044 115.917 116.341 116.477 115.664 116.945C115.299 117.154 114.831 117.258 114.258 117.258H103.32C101.602 117.258 100.43 117.622 99.8047 118.352C99.1797 119.081 98.8672 120.331 98.8672 122.102V129.68H112.891C113.516 129.68 113.984 129.784 114.297 129.992C114.974 130.461 115.677 131.021 116.406 131.672C117.135 132.323 117.904 133.104 118.711 134.016C118.971 134.354 119.102 134.628 119.102 134.836C119.102 135.07 118.971 135.331 118.711 135.617C117.904 136.529 117.135 137.31 116.406 137.961C115.677 138.612 114.974 139.172 114.297 139.641C113.932 139.849 113.464 139.953 112.891 139.953H98.8672V147.844C98.8672 149.589 99.1797 150.839 99.8047 151.594C100.43 152.349 101.602 152.727 103.32 152.727H115.547C116.172 152.727 116.641 152.831 116.953 153.039C117.63 153.508 118.333 154.068 119.062 154.719C119.792 155.37 120.56 156.151 121.367 157.062C121.628 157.401 121.758 157.674 121.758 157.883C121.758 158.117 121.628 158.378 121.367 158.664C120.56 159.576 119.792 160.357 119.062 161.008C118.333 161.659 117.63 162.219 116.953 162.688C116.589 162.896 116.12 163 115.547 163H95.8984ZM167.695 138.117V160.93C167.695 161.711 167.526 162.258 167.188 162.57C166.875 162.857 166.328 163 165.547 163H157.5C156.719 163 156.159 162.857 155.82 162.57C155.508 162.258 155.352 161.711 155.352 160.93V140.148C155.352 137.31 154.753 135.24 153.555 133.938C152.357 132.635 150.729 131.984 148.672 131.984C146.615 131.984 145.026 132.427 143.906 133.312C142.812 134.198 141.966 135.318 141.367 136.672V160.93C141.367 161.711 141.198 162.258 140.859 162.57C140.547 162.857 140 163 139.219 163H131.172C130.391 163 129.831 162.857 129.492 162.57C129.18 162.258 129.023 161.711 129.023 160.93V128.195C129.023 127.57 129.154 127.089 129.414 126.75C129.961 126.021 130.612 125.279 131.367 124.523C132.148 123.768 133.099 122.961 134.219 122.102C134.557 121.841 134.883 121.711 135.195 121.711C135.482 121.711 135.807 121.841 136.172 122.102C137.266 122.961 138.203 123.781 138.984 124.562C139.766 125.344 140.456 126.151 141.055 126.984H141.25C141.693 126.411 142.357 125.747 143.242 124.992C144.128 124.211 145.365 123.521 146.953 122.922C148.568 122.323 150.625 122.023 153.125 122.023C155.573 122.023 157.904 122.518 160.117 123.508C162.331 124.497 164.141 126.164 165.547 128.508C166.979 130.852 167.695 134.055 167.695 138.117ZM192.383 163.977C188.919 163.977 185.964 163.13 183.516 161.438C181.094 159.719 179.245 157.362 177.969 154.367C176.719 151.346 176.094 147.87 176.094 143.938C176.094 138.755 177.005 134.562 178.828 131.359C180.677 128.13 183.268 125.76 186.602 124.25C189.961 122.74 193.919 121.984 198.477 121.984C200.039 121.984 201.328 122.062 202.344 122.219C203.385 122.375 204.128 122.518 204.57 122.648V108.078C204.57 107.453 204.701 106.971 204.961 106.633C206.055 105.201 207.656 103.651 209.766 101.984C210.13 101.724 210.456 101.594 210.742 101.594C211.081 101.594 211.406 101.724 211.719 101.984C212.839 102.844 213.776 103.651 214.531 104.406C215.312 105.161 215.977 105.904 216.523 106.633C216.784 106.971 216.914 107.453 216.914 108.078V161.203C216.914 161.698 216.745 162.128 216.406 162.492C216.068 162.831 215.638 163 215.117 163H209.297C208.88 163 208.503 162.948 208.164 162.844C207.852 162.714 207.552 162.479 207.266 162.141L204.844 159.016H204.57C204.232 159.536 203.62 160.201 202.734 161.008C201.875 161.789 200.612 162.479 198.945 163.078C197.305 163.677 195.117 163.977 192.383 163.977ZM196.172 153.977C198.516 153.977 200.352 153.534 201.68 152.648C203.034 151.763 203.997 150.643 204.57 149.289V132.922C204.154 132.661 203.464 132.349 202.5 131.984C201.536 131.62 200.182 131.438 198.438 131.438C195.208 131.438 192.786 132.492 191.172 134.602C189.557 136.711 188.75 139.549 188.75 143.117C188.75 146.815 189.427 149.549 190.781 151.32C192.135 153.091 193.932 153.977 196.172 153.977ZM252.344 122.023C256.146 122.023 259.271 122.883 261.719 124.602C264.193 126.294 266.029 128.638 267.227 131.633C268.451 134.602 269.062 138.013 269.062 141.867C269.062 146.034 268.346 149.784 266.914 153.117C265.508 156.451 263.424 159.094 260.664 161.047C257.904 163 254.479 163.977 250.391 163.977C248.281 163.977 246.536 163.729 245.156 163.234C243.802 162.766 242.708 162.206 241.875 161.555C241.068 160.878 240.43 160.266 239.961 159.719H239.805V176.359C239.805 176.984 239.674 177.466 239.414 177.805C238.32 179.237 236.719 180.786 234.609 182.453C234.245 182.714 233.919 182.844 233.633 182.844C233.32 182.844 232.995 182.714 232.656 182.453C231.536 181.594 230.586 180.786 229.805 180.031C229.049 179.276 228.398 178.534 227.852 177.805C227.591 177.466 227.461 176.984 227.461 176.359V128.195C227.461 127.57 227.591 127.089 227.852 126.75C228.398 126.021 229.049 125.279 229.805 124.523C230.586 123.768 231.536 122.961 232.656 122.102C232.995 121.841 233.346 121.711 233.711 121.711C234.049 121.711 234.401 121.841 234.766 122.102C235.859 122.961 236.797 123.781 237.578 124.562C238.359 125.344 239.049 126.151 239.648 126.984H239.844C240.286 126.438 240.964 125.773 241.875 124.992C242.786 124.211 244.076 123.521 245.742 122.922C247.435 122.323 249.635 122.023 252.344 122.023ZM247.539 154.016C250.352 154.016 252.526 153.039 254.062 151.086C255.625 149.107 256.406 146.255 256.406 142.531C256.406 135.5 253.516 131.984 247.734 131.984C245.286 131.984 243.477 132.492 242.305 133.508C241.133 134.497 240.299 135.552 239.805 136.672V145.148C239.805 147.674 240.456 149.784 241.758 151.477C243.06 153.169 244.987 154.016 247.539 154.016ZM296.641 163.977C290.078 163.977 284.883 162.232 281.055 158.742C277.227 155.253 275.312 150.057 275.312 143.156C275.312 136.073 277.292 130.786 281.25 127.297C285.234 123.781 290.547 122.023 297.188 122.023C303.594 122.023 308.724 123.755 312.578 127.219C316.432 130.656 318.359 135.734 318.359 142.453C318.359 149.458 316.432 154.797 312.578 158.469C308.724 162.141 303.411 163.977 296.641 163.977ZM297.031 154.523C299.896 154.523 302.057 153.638 303.516 151.867C304.974 150.07 305.703 147.01 305.703 142.688C305.703 138.573 304.961 135.682 303.477 134.016C302.018 132.323 299.844 131.477 296.953 131.477C294.167 131.477 291.966 132.388 290.352 134.211C288.763 136.008 287.969 138.938 287.969 143C287.969 147.245 288.724 150.227 290.234 151.945C291.771 153.664 294.036 154.523 297.031 154.523ZM324.961 109.875C324.961 109.536 325.065 109.237 325.273 108.977C325.482 108.716 325.755 108.378 326.094 107.961C326.823 107.128 327.669 106.255 328.633 105.344C329.596 104.406 330.573 103.508 331.562 102.648C332.188 102.154 332.656 101.906 332.969 101.906C333.281 101.906 333.763 102.154 334.414 102.648C336.523 104.471 338.32 106.242 339.805 107.961C340.143 108.352 340.417 108.69 340.625 108.977C340.859 109.237 340.977 109.536 340.977 109.875C340.977 110.214 340.859 110.513 340.625 110.773C340.417 111.034 340.13 111.385 339.766 111.828C339.062 112.635 338.242 113.508 337.305 114.445C336.367 115.357 335.404 116.229 334.414 117.062C334.049 117.375 333.763 117.583 333.555 117.688C333.346 117.766 333.151 117.805 332.969 117.805C332.786 117.805 332.591 117.766 332.383 117.688C332.201 117.583 331.901 117.375 331.484 117.062C330.443 116.229 329.466 115.357 328.555 114.445C327.643 113.508 326.823 112.609 326.094 111.75C325.755 111.333 325.482 111.008 325.273 110.773C325.065 110.513 324.961 110.214 324.961 109.875ZM339.102 160.93C339.102 161.711 338.932 162.258 338.594 162.57C338.281 162.857 337.734 163 336.953 163H328.906C328.125 163 327.565 162.857 327.227 162.57C326.914 162.258 326.758 161.711 326.758 160.93V125.07C326.758 124.289 326.914 123.755 327.227 123.469C327.565 123.156 328.125 123 328.906 123H336.953C337.734 123 338.281 123.156 338.594 123.469C338.932 123.755 339.102 124.289 339.102 125.07V160.93ZM388.398 138.117V160.93C388.398 161.711 388.229 162.258 387.891 162.57C387.578 162.857 387.031 163 386.25 163H378.203C377.422 163 376.862 162.857 376.523 162.57C376.211 162.258 376.055 161.711 376.055 160.93V140.148C376.055 137.31 375.456 135.24 374.258 133.938C373.06 132.635 371.432 131.984 369.375 131.984C367.318 131.984 365.729 132.427 364.609 133.312C363.516 134.198 362.669 135.318 362.07 136.672V160.93C362.07 161.711 361.901 162.258 361.562 162.57C361.25 162.857 360.703 163 359.922 163H351.875C351.094 163 350.534 162.857 350.195 162.57C349.883 162.258 349.727 161.711 349.727 160.93V128.195C349.727 127.57 349.857 127.089 350.117 126.75C350.664 126.021 351.315 125.279 352.07 124.523C352.852 123.768 353.802 122.961 354.922 122.102C355.26 121.841 355.586 121.711 355.898 121.711C356.185 121.711 356.51 121.841 356.875 122.102C357.969 122.961 358.906 123.781 359.688 124.562C360.469 125.344 361.159 126.151 361.758 126.984H361.953C362.396 126.411 363.06 125.747 363.945 124.992C364.831 124.211 366.068 123.521 367.656 122.922C369.271 122.323 371.328 122.023 373.828 122.023C376.276 122.023 378.607 122.518 380.82 123.508C383.034 124.497 384.844 126.164 386.25 128.508C387.682 130.852 388.398 134.055 388.398 138.117ZM413.984 163.977C405.286 163.977 400.938 159.458 400.938 150.422V132.102H396.523C395.742 132.102 395.195 131.945 394.883 131.633C394.596 131.294 394.453 130.734 394.453 129.953V125.148C394.453 124.367 394.596 123.82 394.883 123.508C395.195 123.169 395.742 123 396.523 123H400.938V116.711C400.938 116.086 401.068 115.604 401.328 115.266C402.422 113.833 404.023 112.284 406.133 110.617C406.497 110.357 406.823 110.227 407.109 110.227C407.422 110.227 407.734 110.357 408.047 110.617C409.167 111.477 410.104 112.284 410.859 113.039C411.641 113.794 412.305 114.536 412.852 115.266C413.112 115.604 413.242 116.086 413.242 116.711V123H420.156C420.938 123 421.471 123.169 421.758 123.508C422.07 123.82 422.227 124.367 422.227 125.148V129.953C422.227 130.734 422.07 131.294 421.758 131.633C421.471 131.945 420.938 132.102 420.156 132.102H413.242V148.273C413.242 152.44 414.753 154.523 417.773 154.523C418.242 154.523 418.672 154.484 419.062 154.406C419.453 154.302 419.792 154.198 420.078 154.094C420.625 153.885 421.003 153.807 421.211 153.859C421.445 153.911 421.654 154.198 421.836 154.719L424.102 160.773C424.336 161.424 424.18 161.893 423.633 162.18C423.242 162.362 422.292 162.701 420.781 163.195C419.297 163.716 417.031 163.977 413.984 163.977Z" fill="white"/>
<path d="M495.207 130.623C493.385 131.661 491.398 132.378 489.333 132.743V171.58C491.09 171.238 492.779 170.611 494.333 169.723L514.423 158.127C516.954 156.659 519.055 154.554 520.517 152.021C521.98 149.488 522.752 146.615 522.757 143.69V120.49C522.746 118.709 522.448 116.942 521.873 115.257L495.207 130.623Z" fill="white"/>
<path d="M482.667 132.743C480.601 132.379 478.613 131.661 476.79 130.623L450.19 115.077C449.574 116.816 449.254 118.645 449.243 120.49V143.69C449.248 146.615 450.02 149.488 451.483 152.021C452.945 154.554 455.046 156.659 457.577 158.127L477.667 169.723C479.221 170.611 480.91 171.238 482.667 171.58V132.743Z" fill="white"/>
</svg>
